<svg xmlns="http://www.w3.org/2000/svg" width="1600" height="900" viewBox="0 0 1600 900" fill="none">
  <defs>
    <linearGradient id="a" x1="0" y1="0" x2="1" y2="1">
      <stop offset="0%" stop-color="#0b1f3a"/>
      <stop offset="45%" stop-color="#153a6b"/>
      <stop offset="100%" stop-color="#0a1628"/>
    </linearGradient>
    <linearGradient id="b" x1="0.2" y1="0" x2="0.9" y2="1">
      <stop offset="0%" stop-color="#2f6fb8" stop-opacity="0.55"/>
      <stop offset="100%" stop-color="#e8a317" stop-opacity="0.18"/>
    </linearGradient>
    <radialGradient id="c" cx="0" cy="0" r="1" gradientUnits="userSpaceOnUse" gradientTransform="translate(1180 160) rotate(90) scale(520 640)">
      <stop stop-color="#5aa9ff" stop-opacity="0.35"/>
      <stop offset="1" stop-color="#5aa9ff" stop-opacity="0"/>
    </radialGradient>
    <filter id="g" x="-20%" y="-20%" width="140%" height="140%">
      <feGaussianBlur stdDeviation="48" result="blur"/>
      <feColorMatrix in="blur" type="matrix" values="1 0 0 0 0  0 1 0 0 0  0 0 1 0 0  0 0 0 0.45 0"/>
    </filter>
  </defs>
  <rect width="1600" height="900" fill="url(#a)"/>
  <rect width="1600" height="900" fill="url(#b)"/>
  <rect width="1600" height="900" fill="url(#c)"/>
  <path d="M120 640 L260 520 L420 580 L620 420 L780 500 L980 360 L1180 440 L1480 300 L1480 900 L120 900 Z" fill="#0d2847" fill-opacity="0.55"/>
  <path d="M180 680 L340 560 L520 610 L700 460 L900 520 L1080 400 L1280 470 L1420 380" stroke="#7cc4ff" stroke-opacity="0.22" stroke-width="3" fill="none"/>
  <path d="M180 720 L340 600 L520 650 L700 500 L900 560 L1080 440 L1280 510 L1420 420" stroke="#e8a317" stroke-opacity="0.35" stroke-width="2" fill="none"/>
  <circle cx="1320" cy="200" r="140" fill="#3b82f6" fill-opacity="0.12" filter="url(#g)"/>
  <circle cx="260" cy="720" r="180" fill="#e8a317" fill-opacity="0.08" filter="url(#g)"/>
</svg>
