<svg xmlns="http://www.w3.org/2000/svg" width="1600" height="900" viewBox="0 0 1600 900" fill="none">
  <defs>
    <linearGradient id="a3" x1="0.5" y1="0" x2="0.5" y2="1">
      <stop offset="0%" stop-color="#0f172a"/>
      <stop offset="50%" stop-color="#1e293b"/>
      <stop offset="100%" stop-color="#070b12"/>
    </linearGradient>
    <radialGradient id="glow" cx="0" cy="0" r="1" gradientUnits="userSpaceOnUse" gradientTransform="translate(520 280) rotate(55) scale(700 520)">
      <stop stop-color="#6366f1" stop-opacity="0.35"/>
      <stop offset="1" stop-color="#6366f1" stop-opacity="0"/>
    </radialGradient>
    <linearGradient id="beam" x1="0" y1="0" x2="1" y2="0">
      <stop offset="0%" stop-color="#ffffff" stop-opacity="0"/>
      <stop offset="50%" stop-color="#ffffff" stop-opacity="0.14"/>
      <stop offset="100%" stop-color="#ffffff" stop-opacity="0"/>
    </linearGradient>
  </defs>
  <rect width="1600" height="900" fill="url(#a3)"/>
  <rect width="1600" height="900" fill="url(#glow)"/>
  <path d="M0 620 Q400 520 800 560 T1600 520 L1600 900 L0 900 Z" fill="#020617" fill-opacity="0.55"/>
  <path d="M200 680 L320 620 L460 640 L620 560 L780 590 L940 520 L1100 540 L1280 480 L1460 500" stroke="url(#beam)" stroke-width="3" fill="none"/>
  <g opacity="0.35">
    <circle cx="280" cy="220" r="4" fill="#fbbf24"/>
    <circle cx="420" cy="180" r="4" fill="#38bdf8"/>
    <circle cx="620" cy="240" r="4" fill="#a78bfa"/>
    <circle cx="900" cy="160" r="4" fill="#34d399"/>
    <circle cx="1180" cy="200" r="4" fill="#fb7185"/>
  </g>
  <path d="M240 240 L1360 240" stroke="#ffffff" stroke-opacity="0.08"/>
</svg>
